STARTFONT 2.1
FONT -sun-arioso-bold-r-normal--10-100-75-75-p-54-adobe-fontspecific
SIZE 10 75 75
FONTBOUNDINGBOX 14 13 -2 -3

STARTPROPERTIES 28
FOUNDRY "sun"
FAMILY_NAME "arioso"
WEIGHT_NAME "bold"
SLANT "r"
SETWIDTH_NAME "normal"
ADD_STYLE_NAME ""
PIXEL_SIZE 10
POINT_SIZE 100
RESOLUTION_X 75
RESOLUTION_Y 75
SPACING "p"
AVERAGE_WIDTH 54
CHARSET_REGISTRY "adobe"
CHARSET_ENCODING "fontspecific"
COPYRIGHT "© 1999 Sun Microsystems, Inc."
RAW_PIXELSIZE 1000
RAW_POINTSIZE 964
RAW_ASCENT 906
RAW_DESCENT 247
RAW_AVERAGE_WIDTH 5188
FACE_NAME "AriosoBold"
_XMBDFED_INFO "Edited with xmbdfed 2.4."
WEIGHT 10
X_HEIGHT -1
QUAD_WIDTH 5
DEFAULT_CHAR 4
FONT_DESCENT 3
FONT_ASCENT 10
ENDPROPERTIES

CHARS 195

STARTCHAR char32
ENCODING 32
SWIDTH 25 0
DWIDTH 3 0
BBX 0 0 0 0
BITMAP
ENDCHAR

STARTCHAR char33
ENCODING 33
SWIDTH 34 0
DWIDTH 4 0
BBX 4 7 0 0
BITMAP
30
20
20
40
40
00
C0
ENDCHAR

STARTCHAR char34
ENCODING 34
SWIDTH 34 0
DWIDTH 4 0
BBX 4 3 1 4
BITMAP
F0
A0
C0
ENDCHAR

STARTCHAR char35
ENCODING 35
SWIDTH 51 0
DWIDTH 6 0
BBX 5 8 0 0
BITMAP
28
28
78
30
30
F8
50
50
ENDCHAR

STARTCHAR char36
ENCODING 36
SWIDTH 51 0
DWIDTH 6 0
BBX 6 9 0 -1
BITMAP
08
34
70
70
30
28
B8
B0
40
ENDCHAR

STARTCHAR char37
ENCODING 37
SWIDTH 68 0
DWIDTH 8 0
BBX 8 7 0 0
BITMAP
24
E4
A8
F7
6F
4F
4E
ENDCHAR

STARTCHAR char38
ENCODING 38
SWIDTH 43 0
DWIDTH 5 0
BBX 5 7 0 0
BITMAP
10
78
70
68
58
D8
F8
ENDCHAR

STARTCHAR char39
ENCODING 39
SWIDTH 17 0
DWIDTH 2 0
BBX 3 3 0 4
BITMAP
40
C0
80
ENDCHAR

STARTCHAR char40
ENCODING 40
SWIDTH 34 0
DWIDTH 4 0
BBX 4 9 0 -2
BITMAP
10
20
40
40
40
80
80
80
80
ENDCHAR

STARTCHAR char41
ENCODING 41
SWIDTH 34 0
DWIDTH 4 0
BBX 4 9 -1 -2
BITMAP
10
10
10
10
30
20
60
40
80
ENDCHAR

STARTCHAR char42
ENCODING 42
SWIDTH 34 0
DWIDTH 4 0
BBX 3 3 1 4
BITMAP
E0
A0
60
ENDCHAR

STARTCHAR char43
ENCODING 43
SWIDTH 60 0
DWIDTH 7 0
BBX 6 6 1 0
BITMAP
30
30
FC
30
30
30
ENDCHAR

STARTCHAR char44
ENCODING 44
SWIDTH 17 0
DWIDTH 2 0
BBX 2 2 0 -1
BITMAP
C0
40
ENDCHAR

STARTCHAR char45
ENCODING 45
SWIDTH 34 0
DWIDTH 4 0
BBX 3 1 0 2
BITMAP
E0
ENDCHAR

STARTCHAR char46
ENCODING 46
SWIDTH 17 0
DWIDTH 2 0
BBX 2 1 0 0
BITMAP
C0
ENDCHAR

STARTCHAR char47
ENCODING 47
SWIDTH 43 0
DWIDTH 5 0
BBX 5 7 0 0
BITMAP
10
10
10
20
40
40
80
ENDCHAR

STARTCHAR char48
ENCODING 48
SWIDTH 51 0
DWIDTH 6 0
BBX 5 7 0 0
BITMAP
30
28
48
48
88
90
70
ENDCHAR

STARTCHAR char49
ENCODING 49
SWIDTH 51 0
DWIDTH 6 0
BBX 4 7 1 0
BITMAP
10
30
60
20
60
40
40
ENDCHAR

STARTCHAR char50
ENCODING 50
SWIDTH 51 0
DWIDTH 6 0
BBX 5 7 0 0
BITMAP
30
58
58
50
60
C0
F0
ENDCHAR

STARTCHAR char51
ENCODING 51
SWIDTH 51 0
DWIDTH 6 0
BBX 5 7 0 0
BITMAP
30
38
18
70
10
10
E0
ENDCHAR

STARTCHAR char52
ENCODING 52
SWIDTH 51 0
DWIDTH 6 0
BBX 6 7 0 0
BITMAP
08
08
38
70
50
F8
20
ENDCHAR

STARTCHAR char53
ENCODING 53
SWIDTH 51 0
DWIDTH 6 0
BBX 5 7 0 0
BITMAP
38
20
20
78
18
18
E0
ENDCHAR

STARTCHAR char54
ENCODING 54
SWIDTH 51 0
DWIDTH 6 0
BBX 6 7 0 0
BITMAP
08
10
30
78
C8
D8
70
ENDCHAR

STARTCHAR char55
ENCODING 55
SWIDTH 51 0
DWIDTH 6 0
BBX 5 6 1 0
BITMAP
F0
10
20
40
40
80
ENDCHAR

STARTCHAR char56
ENCODING 56
SWIDTH 51 0
DWIDTH 6 0
BBX 6 7 0 0
BITMAP
38
6C
2C
30
D8
D8
70
ENDCHAR

STARTCHAR char57
ENCODING 57
SWIDTH 51 0
DWIDTH 6 0
BBX 6 7 0 0
BITMAP
38
6C
CC
C8
50
20
40
ENDCHAR

STARTCHAR char58
ENCODING 58
SWIDTH 25 0
DWIDTH 3 0
BBX 2 4 1 0
BITMAP
C0
00
00
80
ENDCHAR

STARTCHAR char59
ENCODING 59
SWIDTH 25 0
DWIDTH 3 0
BBX 3 5 0 -1
BITMAP
20
00
00
60
40
ENDCHAR

STARTCHAR char60
ENCODING 60
SWIDTH 51 0
DWIDTH 6 0
BBX 6 5 0 0
BITMAP
18
20
C0
30
0C
ENDCHAR

STARTCHAR char61
ENCODING 61
SWIDTH 60 0
DWIDTH 7 0
BBX 7 2 0 2
BITMAP
FE
FE
ENDCHAR

STARTCHAR char62
ENCODING 62
SWIDTH 51 0
DWIDTH 6 0
BBX 5 5 1 0
BITMAP
C0
30
18
60
80
ENDCHAR

STARTCHAR char63
ENCODING 63
SWIDTH 34 0
DWIDTH 4 0
BBX 3 7 1 0
BITMAP
60
60
60
40
A0
40
C0
ENDCHAR

STARTCHAR char64
ENCODING 64
SWIDTH 7 0
DWIDTH 11 0
BBX 9 8 1 0
BITMAP
1C00
2200
7B00
E580
E500
ED00
7F00
3C00
ENDCHAR

STARTCHAR char65
ENCODING 65
SWIDTH 77 0
DWIDTH 9 0
BBX 11 7 -1 0
BITMAP
00C0
01C0
0180
1FC0
6480
CD80
F1E0
ENDCHAR

STARTCHAR char66
ENCODING 66
SWIDTH 68 0
DWIDTH 8 0
BBX 9 7 -1 0
BITMAP
3F80
4580
C500
C900
4980
1900
3E00
ENDCHAR

STARTCHAR char67
ENCODING 67
SWIDTH 51 0
DWIDTH 6 0
BBX 8 7 -1 0
BITMAP
1F
2F
6A
D6
FC
D8
7E
ENDCHAR

STARTCHAR char68
ENCODING 68
SWIDTH 77 0
DWIDTH 9 0
BBX 10 7 -1 0
BITMAP
1F80
22C0
44C0
C440
CC80
0980
1E00
ENDCHAR

STARTCHAR char69
ENCODING 69
SWIDTH 51 0
DWIDTH 6 0
BBX 8 7 -1 0
BITMAP
0E
0E
14
20
C2
C2
7C
ENDCHAR

STARTCHAR char70
ENCODING 70
SWIDTH 86 0
DWIDTH 10 0
BBX 12 9 -1 -2
BITMAP
3FF0
2080
4080
C100
C7E0
C700
4600
0E00
0C00
ENDCHAR

STARTCHAR char71
ENCODING 71
SWIDTH 77 0
DWIDTH 9 0
BBX 9 9 0 -2
BITMAP
1F80
3100
6600
5B80
7300
C300
7F80
0E00
3800
ENDCHAR

STARTCHAR char72
ENCODING 72
SWIDTH 86 0
DWIDTH 10 0
BBX 10 8 0 0
BITMAP
1880
FDC0
8B80
0E00
1EC0
74C0
DC80
EF00
ENDCHAR

STARTCHAR char73
ENCODING 73
SWIDTH 51 0
DWIDTH 6 0
BBX 8 7 -1 0
BITMAP
3F
42
02
02
7E
C5
78
ENDCHAR

STARTCHAR char74
ENCODING 74
SWIDTH 51 0
DWIDTH 6 0
BBX 8 10 -1 -2
BITMAP
07
19
22
42
44
44
CC
38
50
60
ENDCHAR

STARTCHAR char75
ENCODING 75
SWIDTH 86 0
DWIDTH 10 0
BBX 11 7 0 0
BITMAP
3E40
4280
0700
0400
0400
0A00
F1E0
ENDCHAR

STARTCHAR char76
ENCODING 76
SWIDTH 68 0
DWIDTH 8 0
BBX 10 7 -1 0
BITMAP
03C0
04C0
04C0
0F00
0C00
3800
EF80
ENDCHAR

STARTCHAR char77
ENCODING 77
SWIDTH 7 0
DWIDTH 11 0
BBX 11 7 0 0
BITMAP
03E0
07C0
0B40
0BC0
1780
3480
E4E0
ENDCHAR

STARTCHAR char78
ENCODING 78
SWIDTH 77 0
DWIDTH 9 0
BBX 11 7 -1 0
BITMAP
1FE0
2240
4680
CD80
CD80
9D80
39C0
ENDCHAR

STARTCHAR char79
ENCODING 79
SWIDTH 60 0
DWIDTH 7 0
BBX 8 7 -1 0
BITMAP
1E
6B
6B
C2
C2
C4
78
ENDCHAR

STARTCHAR char80
ENCODING 80
SWIDTH 86 0
DWIDTH 10 0
BBX 11 9 -1 -2
BITMAP
1FC0
6260
C460
CC60
88C0
0880
1F00
1000
1000
ENDCHAR

STARTCHAR char81
ENCODING 81
SWIDTH 51 0
DWIDTH 6 0
BBX 8 9 -1 -2
BITMAP
3F
63
C3
C7
46
4C
F9
07
02
ENDCHAR

STARTCHAR char82
ENCODING 82
SWIDTH 77 0
DWIDTH 9 0
BBX 10 7 -1 0
BITMAP
1EC0
24C0
44C0
C980
CA00
4C00
1380
ENDCHAR

STARTCHAR char83
ENCODING 83
SWIDTH 51 0
DWIDTH 6 0
BBX 7 7 -1 0
BITMAP
1E
1C
18
0C
7C
C4
78
ENDCHAR

STARTCHAR char84
ENCODING 84
SWIDTH 60 0
DWIDTH 7 0
BBX 9 7 -1 0
BITMAP
3F80
4100
C200
C200
5A00
6400
3800
ENDCHAR

STARTCHAR char85
ENCODING 85
SWIDTH 77 0
DWIDTH 9 0
BBX 11 7 -1 0
BITMAP
3EC0
26C0
45C0
CD80
CB00
5700
1BC0
ENDCHAR

STARTCHAR char86
ENCODING 86
SWIDTH 77 0
DWIDTH 9 0
BBX 11 7 -1 0
BITMAP
1E60
2660
CC60
CC40
D8C0
5980
0E00
ENDCHAR

STARTCHAR char87
ENCODING 87
SWIDTH 7 0
DWIDTH 11 0
BBX 11 7 0 0
BITMAP
7F60
8A60
1660
1660
3E40
36C0
3700
ENDCHAR

STARTCHAR char88
ENCODING 88
SWIDTH 77 0
DWIDTH 9 0
BBX 12 7 -1 0
BITMAP
1FF0
6700
C700
CF20
8E60
1C40
FF80
ENDCHAR

STARTCHAR char89
ENCODING 89
SWIDTH 77 0
DWIDTH 9 0
BBX 10 9 -1 -2
BITMAP
3EC0
46C0
CD80
DD80
DF80
5F00
1F00
1B00
1E00
ENDCHAR

STARTCHAR char90
ENCODING 90
SWIDTH 77 0
DWIDTH 9 0
BBX 11 7 -1 0
BITMAP
1FE0
1680
2580
6780
6A00
1400
FFC0
ENDCHAR

STARTCHAR char91
ENCODING 91
SWIDTH 34 0
DWIDTH 4 0
BBX 6 9 -1 -2
BITMAP
1C
10
30
20
20
40
40
C0
40
ENDCHAR

STARTCHAR char92
ENCODING 92
SWIDTH 25 0
DWIDTH 3 0
BBX 3 8 0 0
BITMAP
80
80
40
40
40
40
20
20
ENDCHAR

STARTCHAR char93
ENCODING 93
SWIDTH 34 0
DWIDTH 4 0
BBX 5 10 -2 -2
BITMAP
08
08
08
18
10
10
20
20
60
40
ENDCHAR

STARTCHAR char94
ENCODING 94
SWIDTH 0 0
DWIDTH 0 0
BBX 2 1 0 8
BITMAP
C0
ENDCHAR

STARTCHAR char95
ENCODING 95
SWIDTH 51 0
DWIDTH 6 0
BBX 6 1 0 -2
BITMAP
FC
ENDCHAR

STARTCHAR char96
ENCODING 96
SWIDTH 0 0
DWIDTH 0 0
BBX 2 2 0 5
BITMAP
80
40
ENDCHAR

STARTCHAR char97
ENCODING 97
SWIDTH 43 0
DWIDTH 5 0
BBX 6 4 -1 0
BITMAP
38
C8
C8
FC
ENDCHAR

STARTCHAR char98
ENCODING 98
SWIDTH 43 0
DWIDTH 5 0
BBX 7 7 -1 0
BITMAP
10
30
38
7C
5C
DE
E0
ENDCHAR

STARTCHAR char99
ENCODING 99
SWIDTH 34 0
DWIDTH 4 0
BBX 5 4 -1 0
BITMAP
38
50
C0
F0
ENDCHAR

STARTCHAR char100
ENCODING 100
SWIDTH 43 0
DWIDTH 5 0
BBX 7 7 -1 0
BITMAP
04
04
0C
78
C8
D8
FC
ENDCHAR

STARTCHAR char101
ENCODING 101
SWIDTH 34 0
DWIDTH 4 0
BBX 5 4 -1 0
BITMAP
78
F0
E0
F0
ENDCHAR

STARTCHAR char102
ENCODING 102
SWIDTH 34 0
DWIDTH 4 0
BBX 5 9 -1 -2
BITMAP
18
18
18
38
60
E0
78
40
C0
ENDCHAR

STARTCHAR char103
ENCODING 103
SWIDTH 43 0
DWIDTH 5 0
BBX 6 6 -1 -2
BITMAP
78
C8
D8
FC
10
60
ENDCHAR

STARTCHAR char104
ENCODING 104
SWIDTH 43 0
DWIDTH 5 0
BBX 5 7 0 0
BITMAP
20
60
40
78
F0
B0
F8
ENDCHAR

STARTCHAR char105
ENCODING 105
SWIDTH 25 0
DWIDTH 3 0
BBX 4 6 -1 0
BITMAP
30
00
60
60
C0
F0
ENDCHAR

STARTCHAR char106
ENCODING 106
SWIDTH 34 0
DWIDTH 4 0
BBX 5 8 -1 -2
BITMAP
18
00
70
70
20
E0
C0
C0
ENDCHAR

STARTCHAR char107
ENCODING 107
SWIDTH 43 0
DWIDTH 5 0
BBX 6 7 0 0
BITMAP
20
40
40
78
B0
E0
FC
ENDCHAR

STARTCHAR char108
ENCODING 108
SWIDTH 25 0
DWIDTH 3 0
BBX 4 7 -1 0
BITMAP
10
30
60
60
E0
C0
F0
ENDCHAR

STARTCHAR char109
ENCODING 109
SWIDTH 68 0
DWIDTH 8 0
BBX 9 4 -1 0
BITMAP
5F00
6F00
FE00
FE80
ENDCHAR

STARTCHAR char110
ENCODING 110
SWIDTH 43 0
DWIDTH 5 0
BBX 6 4 0 0
BITMAP
78
F0
F0
FC
ENDCHAR

STARTCHAR char111
ENCODING 111
SWIDTH 43 0
DWIDTH 5 0
BBX 6 5 -1 0
BITMAP
10
38
D8
DC
F0
ENDCHAR

STARTCHAR char112
ENCODING 112
SWIDTH 43 0
DWIDTH 5 0
BBX 7 6 -1 -2
BITMAP
1C
EC
A8
F6
68
40
ENDCHAR

STARTCHAR char113
ENCODING 113
SWIDTH 43 0
DWIDTH 5 0
BBX 6 6 -1 -2
BITMAP
78
C8
D0
FC
18
10
ENDCHAR

STARTCHAR char114
ENCODING 114
SWIDTH 34 0
DWIDTH 4 0
BBX 4 4 0 0
BITMAP
60
E0
D0
C0
ENDCHAR

STARTCHAR char115
ENCODING 115
SWIDTH 34 0
DWIDTH 4 0
BBX 4 4 0 0
BITMAP
60
40
60
F0
ENDCHAR

STARTCHAR char116
ENCODING 116
SWIDTH 25 0
DWIDTH 3 0
BBX 4 6 -1 0
BITMAP
30
60
F0
60
C0
F0
ENDCHAR

STARTCHAR char117
ENCODING 117
SWIDTH 43 0
DWIDTH 5 0
BBX 6 4 -1 0
BITMAP
28
68
D8
FC
ENDCHAR

STARTCHAR char118
ENCODING 118
SWIDTH 43 0
DWIDTH 5 0
BBX 6 5 -1 0
BITMAP
08
7C
DC
CC
F0
ENDCHAR

STARTCHAR char119
ENCODING 119
SWIDTH 60 0
DWIDTH 7 0
BBX 8 5 -1 0
BITMAP
02
6F
4B
D3
FC
ENDCHAR

STARTCHAR char120
ENCODING 120
SWIDTH 43 0
DWIDTH 5 0
BBX 7 4 -1 0
BITMAP
7E
18
70
FC
ENDCHAR

STARTCHAR char121
ENCODING 121
SWIDTH 43 0
DWIDTH 5 0
BBX 6 6 -1 -2
BITMAP
48
C8
D8
DC
30
60
ENDCHAR

STARTCHAR char122
ENCODING 122
SWIDTH 34 0
DWIDTH 4 0
BBX 4 4 0 0
BITMAP
F0
60
80
F0
ENDCHAR

STARTCHAR char123
ENCODING 123
SWIDTH 25 0
DWIDTH 3 0
BBX 3 10 0 -2
BITMAP
20
60
60
60
60
C0
60
60
60
60
ENDCHAR

STARTCHAR char124
ENCODING 124
SWIDTH 25 0
DWIDTH 3 0
BBX 2 8 0 0
BITMAP
C0
C0
C0
C0
C0
C0
C0
C0
ENDCHAR

STARTCHAR char125
ENCODING 125
SWIDTH 25 0
DWIDTH 3 0
BBX 3 10 0 -2
BITMAP
C0
40
40
40
60
20
60
60
60
E0
ENDCHAR

STARTCHAR char126
ENCODING 126
SWIDTH 0 0
DWIDTH 0 0
BBX 3 1 0 8
BITMAP
E0
ENDCHAR

STARTCHAR char128
ENCODING 128
SWIDTH 51 0
DWIDTH 6 0
BBX 8 7 -1 0
BITMAP
1F
70
7C
DA
C4
C0
7E
ENDCHAR

STARTCHAR char130
ENCODING 130
SWIDTH 17 0
DWIDTH 2 0
BBX 2 2 0 -1
BITMAP
C0
40
ENDCHAR

STARTCHAR char131
ENCODING 131
SWIDTH 0 0
DWIDTH 0 0
BBX 2 1 0 8
BITMAP
C0
ENDCHAR

STARTCHAR char132
ENCODING 132
SWIDTH 34 0
DWIDTH 4 0
BBX 4 2 0 -1
BITMAP
F0
60
ENDCHAR

STARTCHAR char133
ENCODING 133
SWIDTH 86 0
DWIDTH 10 0
BBX 9 1 1 0
BITMAP
D980
ENDCHAR

STARTCHAR char134
ENCODING 134
SWIDTH 43 0
DWIDTH 5 0
BBX 5 8 0 -1
BITMAP
30
78
20
20
40
40
40
40
ENDCHAR

STARTCHAR char136
ENCODING 136
SWIDTH 0 0
DWIDTH 0 0
BBX 3 2 -1 5
BITMAP
60
60
ENDCHAR

STARTCHAR char139
ENCODING 139
SWIDTH 25 0
DWIDTH 3 0
BBX 2 4 1 1
BITMAP
40
80
80
40
ENDCHAR

STARTCHAR char140
ENCODING 140
SWIDTH 7 0
DWIDTH 11 0
BBX 12 7 -1 0
BITMAP
2FF0
33E0
53C0
C300
C620
C630
7BC0
ENDCHAR

STARTCHAR char145
ENCODING 145
SWIDTH 17 0
DWIDTH 2 0
BBX 3 3 0 4
BITMAP
40
C0
80
ENDCHAR

STARTCHAR char146
ENCODING 146
SWIDTH 17 0
DWIDTH 2 0
BBX 2 3 1 4
BITMAP
C0
80
80
ENDCHAR

STARTCHAR char147
ENCODING 147
SWIDTH 34 0
DWIDTH 4 0
BBX 4 3 1 4
BITMAP
A0
E0
C0
ENDCHAR

STARTCHAR char148
ENCODING 148
SWIDTH 34 0
DWIDTH 4 0
BBX 4 3 1 4
BITMAP
F0
A0
C0
ENDCHAR

STARTCHAR char149
ENCODING 149
SWIDTH 25 0
DWIDTH 3 0
BBX 3 3 0 2
BITMAP
E0
E0
E0
ENDCHAR

STARTCHAR char150
ENCODING 150
SWIDTH 51 0
DWIDTH 6 0
BBX 5 1 0 2
BITMAP
F8
ENDCHAR

STARTCHAR char151
ENCODING 151
SWIDTH 60 0
DWIDTH 7 0
BBX 7 1 0 3
BITMAP
FE
ENDCHAR

STARTCHAR char152
ENCODING 152
SWIDTH 0 0
DWIDTH 0 0
BBX 5 2 -1 5
BITMAP
78
10
ENDCHAR

STARTCHAR char153
ENCODING 153
SWIDTH 77 0
DWIDTH 9 0
BBX 9 4 0 3
BITMAP
F900
6F00
6F00
5F80
ENDCHAR

STARTCHAR char155
ENCODING 155
SWIDTH 25 0
DWIDTH 3 0
BBX 2 4 1 1
BITMAP
80
80
C0
80
ENDCHAR

STARTCHAR char156
ENCODING 156
SWIDTH 51 0
DWIDTH 6 0
BBX 7 4 -1 0
BITMAP
7E
CC
D8
FE
ENDCHAR

STARTCHAR char159
ENCODING 159
SWIDTH 77 0
DWIDTH 9 0
BBX 10 11 -1 -2
BITMAP
0700
0000
3EC0
46C0
CD80
DF80
DF80
5F00
1F00
0B00
1E00
ENDCHAR

STARTCHAR char160
ENCODING 160
SWIDTH 25 0
DWIDTH 3 0
BBX 0 0 0 0
BITMAP
ENDCHAR

STARTCHAR char161
ENCODING 161
SWIDTH 34 0
DWIDTH 4 0
BBX 4 7 0 0
BITMAP
30
00
40
40
40
C0
40
ENDCHAR

STARTCHAR char162
ENCODING 162
SWIDTH 34 0
DWIDTH 4 0
BBX 5 6 -1 -1
BITMAP
10
38
50
D0
70
20
ENDCHAR

STARTCHAR char163
ENCODING 163
SWIDTH 60 0
DWIDTH 7 0
BBX 9 8 -1 0
BITMAP
0600
0900
1980
1800
3C00
1800
2800
FE00
ENDCHAR

STARTCHAR char164
ENCODING 164
SWIDTH 0 0
DWIDTH 0 0
BBX 3 1 0 8
BITMAP
40
ENDCHAR

STARTCHAR char165
ENCODING 165
SWIDTH 0 0
DWIDTH 0 0
BBX 3 1 0 8
BITMAP
40
ENDCHAR

STARTCHAR char167
ENCODING 167
SWIDTH 43 0
DWIDTH 5 0
BBX 7 10 -2 -3
BITMAP
0E
1E
18
28
2C
2C
18
18
D8
70
ENDCHAR

STARTCHAR char168
ENCODING 168
SWIDTH 0 0
DWIDTH 0 0
BBX 4 2 -1 5
BITMAP
F0
40
ENDCHAR

STARTCHAR char169
ENCODING 169
SWIDTH 68 0
DWIDTH 8 0
BBX 9 7 -1 0
BITMAP
1C00
2F00
7300
F180
7180
7D00
1E00
ENDCHAR

STARTCHAR char170
ENCODING 170
SWIDTH 0 0
DWIDTH 0 0
BBX 3 1 0 8
BITMAP
E0
ENDCHAR

STARTCHAR char171
ENCODING 171
SWIDTH 43 0
DWIDTH 5 0
BBX 4 3 0 1
BITMAP
50
A0
70
ENDCHAR

STARTCHAR char172
ENCODING 172
SWIDTH 60 0
DWIDTH 7 0
BBX 7 3 0 0
BITMAP
FE
06
06
ENDCHAR

STARTCHAR char174
ENCODING 174
SWIDTH 68 0
DWIDTH 8 0
BBX 9 7 -1 0
BITMAP
1C00
3F00
5700
D980
DD80
7F00
1E00
ENDCHAR

STARTCHAR char176
ENCODING 176
SWIDTH 25 0
DWIDTH 3 0
BBX 5 4 0 3
BITMAP
60
D8
50
20
ENDCHAR

STARTCHAR char177
ENCODING 177
SWIDTH 43 0
DWIDTH 5 0
BBX 5 6 0 0
BITMAP
30
30
F8
30
30
F8
ENDCHAR

STARTCHAR char180
ENCODING 180
SWIDTH 0 0
DWIDTH 0 0
BBX 3 2 0 5
BITMAP
40
80
ENDCHAR

STARTCHAR char182
ENCODING 182
SWIDTH 60 0
DWIDTH 7 0
BBX 5 10 1 -2
BITMAP
78
F8
F8
F8
78
78
78
78
78
78
ENDCHAR

STARTCHAR char183
ENCODING 183
SWIDTH 17 0
DWIDTH 2 0
BBX 2 1 0 2
BITMAP
C0
ENDCHAR

STARTCHAR char184
ENCODING 184
SWIDTH 0 0
DWIDTH 0 0
BBX 2 2 -2 -2
BITMAP
40
80
ENDCHAR

STARTCHAR char186
ENCODING 186
SWIDTH 0 0
DWIDTH 0 0
BBX 3 1 0 8
BITMAP
E0
ENDCHAR

STARTCHAR char187
ENCODING 187
SWIDTH 43 0
DWIDTH 5 0
BBX 4 3 0 1
BITMAP
70
50
E0
ENDCHAR

STARTCHAR char191
ENCODING 191
SWIDTH 34 0
DWIDTH 4 0
BBX 5 7 -1 0
BITMAP
18
10
38
10
60
D0
F0
ENDCHAR

STARTCHAR char192
ENCODING 192
SWIDTH 77 0
DWIDTH 9 0
BBX 11 9 -1 0
BITMAP
0200
0000
00C0
01C0
0180
1FC0
6480
CD80
F1E0
ENDCHAR

STARTCHAR char193
ENCODING 193
SWIDTH 77 0
DWIDTH 9 0
BBX 11 9 -1 0
BITMAP
0200
0000
00C0
01C0
0180
1FC0
6480
CD80
F1E0
ENDCHAR

STARTCHAR char194
ENCODING 194
SWIDTH 77 0
DWIDTH 9 0
BBX 11 9 -1 0
BITMAP
0300
0000
00C0
01C0
0180
1FC0
6480
CD80
F1E0
ENDCHAR

STARTCHAR char195
ENCODING 195
SWIDTH 77 0
DWIDTH 9 0
BBX 11 9 -1 0
BITMAP
0700
0000
00C0
01C0
0180
1FC0
6480
CD80
F1E0
ENDCHAR

STARTCHAR char196
ENCODING 196
SWIDTH 77 0
DWIDTH 9 0
BBX 12 9 -1 0
BITMAP
00F0
0000
00E0
01C0
0180
1FE0
6480
CD80
F1E0
ENDCHAR

STARTCHAR char197
ENCODING 197
SWIDTH 77 0
DWIDTH 9 0
BBX 12 10 -1 0
BITMAP
00F0
00F0
00F0
00C0
01C0
0180
1FC0
6480
CD80
F1C0
ENDCHAR

STARTCHAR char198
ENCODING 198
SWIDTH 7 0
DWIDTH 11 0
BBX 13 8 -1 0
BITMAP
00B8
03F0
0550
0760
3F80
4F10
D610
F7E0
ENDCHAR

STARTCHAR char199
ENCODING 199
SWIDTH 51 0
DWIDTH 6 0
BBX 8 9 -1 -2
BITMAP
1F
2F
72
D6
DC
D8
4E
30
20
ENDCHAR

STARTCHAR char200
ENCODING 200
SWIDTH 51 0
DWIDTH 6 0
BBX 8 9 -1 0
BITMAP
04
00
0E
0E
14
20
C2
C2
7C
ENDCHAR

STARTCHAR char201
ENCODING 201
SWIDTH 51 0
DWIDTH 6 0
BBX 8 9 -1 0
BITMAP
04
00
0E
0E
14
20
C2
C2
7C
ENDCHAR

STARTCHAR char202
ENCODING 202
SWIDTH 51 0
DWIDTH 6 0
BBX 8 9 -1 0
BITMAP
0C
00
0E
0E
14
20
C2
C2
7C
ENDCHAR

STARTCHAR char203
ENCODING 203
SWIDTH 51 0
DWIDTH 6 0
BBX 8 9 -1 0
BITMAP
1E
00
1E
1E
18
20
C3
C3
7C
ENDCHAR

STARTCHAR char204
ENCODING 204
SWIDTH 51 0
DWIDTH 6 0
BBX 8 9 -1 0
BITMAP
04
00
3F
42
02
02
7E
C5
78
ENDCHAR

STARTCHAR char205
ENCODING 205
SWIDTH 51 0
DWIDTH 6 0
BBX 8 9 -1 0
BITMAP
06
08
1F
22
02
02
7E
C5
78
ENDCHAR

STARTCHAR char206
ENCODING 206
SWIDTH 51 0
DWIDTH 6 0
BBX 8 9 -1 0
BITMAP
04
0A
1F
22
02
02
7E
C5
78
ENDCHAR

STARTCHAR char207
ENCODING 207
SWIDTH 51 0
DWIDTH 6 0
BBX 8 9 -1 0
BITMAP
1E
00
3F
42
02
06
7E
C5
78
ENDCHAR

STARTCHAR char209
ENCODING 209
SWIDTH 77 0
DWIDTH 9 0
BBX 11 9 -1 0
BITMAP
0700
0000
1FE0
2240
4680
CD80
CD80
9D80
39C0
ENDCHAR

STARTCHAR char210
ENCODING 210
SWIDTH 60 0
DWIDTH 7 0
BBX 8 9 -1 0
BITMAP
04
00
1E
6B
6B
C2
C2
C4
78
ENDCHAR

STARTCHAR char211
ENCODING 211
SWIDTH 60 0
DWIDTH 7 0
BBX 8 9 -1 0
BITMAP
04
00
1E
6B
6B
C2
C2
C4
78
ENDCHAR

STARTCHAR char212
ENCODING 212
SWIDTH 60 0
DWIDTH 7 0
BBX 8 9 -1 0
BITMAP
04
00
1E
6B
6B
C2
C2
C4
78
ENDCHAR

STARTCHAR char213
ENCODING 213
SWIDTH 60 0
DWIDTH 7 0
BBX 8 9 -1 0
BITMAP
0F
00
1E
6B
6B
C2
C2
C4
78
ENDCHAR

STARTCHAR char214
ENCODING 214
SWIDTH 60 0
DWIDTH 7 0
BBX 8 9 -1 0
BITMAP
0E
00
1E
6B
6B
C6
C6
C4
78
ENDCHAR

STARTCHAR char216
ENCODING 216
SWIDTH 60 0
DWIDTH 7 0
BBX 8 8 -1 0
BITMAP
02
1F
6E
6B
D2
E2
E4
F8
ENDCHAR

STARTCHAR char217
ENCODING 217
SWIDTH 77 0
DWIDTH 9 0
BBX 11 9 -1 0
BITMAP
0600
0000
3EC0
26C0
45C0
CD80
CB00
5700
1BC0
ENDCHAR

STARTCHAR char218
ENCODING 218
SWIDTH 77 0
DWIDTH 9 0
BBX 11 9 -1 0
BITMAP
0600
0000
3EC0
26C0
45C0
CD80
CB00
5700
1BC0
ENDCHAR

STARTCHAR char219
ENCODING 219
SWIDTH 77 0
DWIDTH 9 0
BBX 11 9 -1 0
BITMAP
0600
0000
3EC0
26C0
45C0
CD80
CB00
5700
1BC0
ENDCHAR

STARTCHAR char220
ENCODING 220
SWIDTH 77 0
DWIDTH 9 0
BBX 11 9 -1 0
BITMAP
03C0
0000
1EE0
26C0
4580
CD80
CB00
5F00
19C0
ENDCHAR

STARTCHAR char223
ENCODING 223
SWIDTH 51 0
DWIDTH 6 0
BBX 7 9 -1 -2
BITMAP
1E
14
28
38
26
36
F8
40
80
ENDCHAR

STARTCHAR char224
ENCODING 224
SWIDTH 43 0
DWIDTH 5 0
BBX 6 7 -1 0
BITMAP
10
08
00
38
C8
C8
FC
ENDCHAR

STARTCHAR char225
ENCODING 225
SWIDTH 43 0
DWIDTH 5 0
BBX 6 7 -1 0
BITMAP
0C
18
00
38
C8
C8
FC
ENDCHAR

STARTCHAR char226
ENCODING 226
SWIDTH 43 0
DWIDTH 5 0
BBX 6 7 -1 0
BITMAP
18
14
00
38
C8
C8
FC
ENDCHAR

STARTCHAR char227
ENCODING 227
SWIDTH 43 0
DWIDTH 5 0
BBX 6 7 -1 0
BITMAP
1C
04
00
38
C8
C8
FC
ENDCHAR

STARTCHAR char228
ENCODING 228
SWIDTH 43 0
DWIDTH 5 0
BBX 7 6 -1 0
BITMAP
1C
00
3C
C8
D8
FE
ENDCHAR

STARTCHAR char229
ENCODING 229
SWIDTH 43 0
DWIDTH 5 0
BBX 6 7 -1 0
BITMAP
1C
1C
00
78
D8
D8
FC
ENDCHAR

STARTCHAR char230
ENCODING 230
SWIDTH 51 0
DWIDTH 6 0
BBX 7 4 -1 0
BITMAP
3E
CC
D8
FE
ENDCHAR

STARTCHAR char231
ENCODING 231
SWIDTH 34 0
DWIDTH 4 0
BBX 4 6 0 -2
BITMAP
70
E0
80
F0
C0
80
ENDCHAR

STARTCHAR char232
ENCODING 232
SWIDTH 34 0
DWIDTH 4 0
BBX 5 7 -1 0
BITMAP
30
10
00
78
F0
E0
F0
ENDCHAR

STARTCHAR char233
ENCODING 233
SWIDTH 34 0
DWIDTH 4 0
BBX 5 7 -1 0
BITMAP
18
10
00
78
F0
E0
F0
ENDCHAR

STARTCHAR char234
ENCODING 234
SWIDTH 34 0
DWIDTH 4 0
BBX 5 7 -1 0
BITMAP
18
28
00
78
F0
E0
F0
ENDCHAR

STARTCHAR char235
ENCODING 235
SWIDTH 34 0
DWIDTH 4 0
BBX 5 7 -1 0
BITMAP
08
38
00
78
F0
E0
F0
ENDCHAR

STARTCHAR char236
ENCODING 236
SWIDTH 25 0
DWIDTH 3 0
BBX 4 7 -1 0
BITMAP
60
10
00
60
60
C0
F0
ENDCHAR

STARTCHAR char237
ENCODING 237
SWIDTH 25 0
DWIDTH 3 0
BBX 5 7 -1 0
BITMAP
18
10
00
60
60
C0
F0
ENDCHAR

STARTCHAR char238
ENCODING 238
SWIDTH 25 0
DWIDTH 3 0
BBX 5 7 -1 0
BITMAP
30
48
00
60
60
C0
F0
ENDCHAR

STARTCHAR char239
ENCODING 239
SWIDTH 25 0
DWIDTH 3 0
BBX 5 7 -1 0
BITMAP
08
78
00
60
60
C0
F0
ENDCHAR

STARTCHAR char241
ENCODING 241
SWIDTH 43 0
DWIDTH 5 0
BBX 6 7 0 0
BITMAP
3C
08
00
78
F0
F0
FC
ENDCHAR

STARTCHAR char242
ENCODING 242
SWIDTH 43 0
DWIDTH 5 0
BBX 6 7 -1 0
BITMAP
30
08
10
38
D8
DC
F0
ENDCHAR

STARTCHAR char243
ENCODING 243
SWIDTH 43 0
DWIDTH 5 0
BBX 6 7 -1 0
BITMAP
08
10
10
38
D8
DC
F0
ENDCHAR

STARTCHAR char244
ENCODING 244
SWIDTH 43 0
DWIDTH 5 0
BBX 6 7 -1 0
BITMAP
18
18
10
38
D8
DC
F0
ENDCHAR

STARTCHAR char245
ENCODING 245
SWIDTH 43 0
DWIDTH 5 0
BBX 7 7 -1 0
BITMAP
1E
04
10
38
D8
DC
F0
ENDCHAR

STARTCHAR char246
ENCODING 246
SWIDTH 43 0
DWIDTH 5 0
BBX 6 6 -1 0
BITMAP
3C
18
78
D8
DC
F0
ENDCHAR

STARTCHAR char247
ENCODING 247
SWIDTH 43 0
DWIDTH 5 0
BBX 5 3 0 1
BITMAP
30
F8
30
ENDCHAR

STARTCHAR char248
ENCODING 248
SWIDTH 43 0
DWIDTH 5 0
BBX 6 6 -1 -1
BITMAP
18
78
F8
FC
F0
40
ENDCHAR

STARTCHAR char249
ENCODING 249
SWIDTH 43 0
DWIDTH 5 0
BBX 6 7 -1 0
BITMAP
18
08
00
28
48
D8
FC
ENDCHAR

STARTCHAR char250
ENCODING 250
SWIDTH 43 0
DWIDTH 5 0
BBX 6 7 -1 0
BITMAP
04
08
00
28
48
D8
FC
ENDCHAR

STARTCHAR char251
ENCODING 251
SWIDTH 43 0
DWIDTH 5 0
BBX 6 7 -1 0
BITMAP
08
14
00
28
48
D8
FC
ENDCHAR

STARTCHAR char252
ENCODING 252
SWIDTH 43 0
DWIDTH 5 0
BBX 6 7 -1 0
BITMAP
1C
10
00
6C
68
D8
FC
ENDCHAR

STARTCHAR char255
ENCODING 255
SWIDTH 43 0
DWIDTH 5 0
BBX 6 8 -1 -2
BITMAP
3C
00
68
D8
D0
EC
30
60
ENDCHAR
ENDFONT
